<svg width="22" height="20" viewBox="0 0 22 20" fill="none" xmlns="http://www.w3.org/2000/svg">
<path id="Vector" d="M15.9961 3.52522H16.5296H19.4615C19.8712 3.52522 20.2631 3.68717 20.5512 3.97379C20.8392 4.26023 21 4.64762 21 5.05044V16.8348C21 17.2376 20.8392 17.625 20.5512 17.9114C20.2631 18.198 19.8712 18.36 19.4615 18.36H2.53846C2.12875 18.36 1.73687 18.198 1.44875 17.9114C1.16081 17.625 1 17.2376 1 16.8348V5.05044C1 4.64762 1.16081 4.26023 1.44875 3.97379L0.743498 3.26484L1.44875 3.97379C1.73687 3.68717 2.12875 3.52522 2.53846 3.52522H5.46933H6.00267L6.29978 3.0823L7.69663 1H14.3033L15.699 3.08202L15.9961 3.52522ZM7.74247 0.931659C7.74245 0.9317 7.74242 0.931742 7.74239 0.931783L7.74247 0.931659ZM7.6023 13.9091L8.30756 13.2001L7.6023 13.9091C8.275 14.5783 9.13144 15.0334 10.063 15.2178C10.9946 15.4021 11.9603 15.3075 12.8381 14.9458C13.716 14.5841 14.4672 13.9711 14.9961 13.1837C15.525 12.3962 15.8077 11.4698 15.8077 10.5217C15.8077 9.25024 15.2999 8.03187 14.3977 7.13439C13.4957 6.23708 12.2734 5.73391 11 5.73391C10.0503 5.73391 9.12148 6.01404 8.331 6.53947C7.54046 7.06494 6.92351 7.81235 6.55898 8.68781C6.19443 9.56331 6.09897 10.527 6.28488 11.4568C6.47079 12.3865 6.92954 13.2398 7.6023 13.9091Z" stroke="#C8B8A9" stroke-width="2"/>
</svg>
