<svg width="35" height="34" viewBox="0 0 35 34" fill="none" xmlns="http://www.w3.org/2000/svg">
<path d="M25.9375 18.4972H18.9062V25.5284C18.9062 25.9014 18.7581 26.2591 18.4944 26.5228C18.2306 26.7865 17.873 26.9347 17.5 26.9347C17.127 26.9347 16.7694 26.7865 16.5056 26.5228C16.2419 26.2591 16.0938 25.9014 16.0938 25.5284V18.4972H9.0625C8.68954 18.4972 8.33185 18.349 8.06813 18.0853C7.80441 17.8216 7.65625 17.4639 7.65625 17.0909C7.65625 16.718 7.80441 16.3603 8.06813 16.0966C8.33185 15.8329 8.68954 15.6847 9.0625 15.6847H16.0938V8.65344C16.0938 8.28048 16.2419 7.9228 16.5056 7.65907C16.7694 7.39535 17.127 7.24719 17.5 7.24719C17.873 7.24719 18.2306 7.39535 18.4944 7.65907C18.7581 7.9228 18.9062 8.28048 18.9062 8.65344V15.6847H25.9375C26.3105 15.6847 26.6681 15.8329 26.9319 16.0966C27.1956 16.3603 27.3438 16.718 27.3438 17.0909C27.3438 17.4639 27.1956 17.8216 26.9319 18.0853C26.6681 18.349 26.3105 18.4972 25.9375 18.4972Z" fill="white"/>
</svg>
