<svg width="24" height="24" viewBox="0 0 24 24" fill="none" xmlns="http://www.w3.org/2000/svg">
<path d="M12.0006 16.686L12.2588 16.8422L16.4088 19.3522L16.409 19.3523C16.7886 19.582 17.2534 19.2445 17.1531 18.8133L16.0531 14.0935L15.9847 13.7997L16.2126 13.6021L19.8826 10.4221L19.8828 10.422C20.2196 10.1305 20.0353 9.58303 19.6004 9.54844L19.5978 9.54823L14.7678 9.13822L14.4673 9.11272L14.3497 8.8351L12.4597 4.3751L12.459 4.37353C12.2906 3.97217 11.7096 3.97217 11.5411 4.37353L11.5403 4.37547L9.65028 8.82547L9.53252 9.10274L9.23236 9.12822L4.40236 9.53822L4.39972 9.53844L4.39972 9.53844C3.96481 9.57303 3.78059 10.1205 4.11732 10.412L4.1175 10.4121L7.7875 13.5921L8.0155 13.7897L7.94702 14.0835L6.84708 18.8033L12.0006 16.686ZM12.0006 16.686L11.7421 16.8417M12.0006 16.686L11.7421 16.8417M11.7421 16.8417L7.59207 19.3417L7.59117 19.3423M11.7421 16.8417L7.59117 19.3423M7.59117 19.3423C7.21162 19.572 6.74695 19.2346 6.84702 18.8035L7.59117 19.3423Z" stroke="#654D47"/>
</svg>
