<svg width="19" height="19" viewBox="0 0 19 19" fill="none" xmlns="http://www.w3.org/2000/svg">
<path fill-rule="evenodd" clip-rule="evenodd" d="M8.30279 1.77847C6.57262 1.77847 4.91331 2.46578 3.68989 3.6892C2.46648 4.91261 1.77917 6.57192 1.77917 8.30209C1.77917 10.0323 2.46648 11.6916 3.68989 12.915C4.91331 14.1384 6.57262 14.8257 8.30279 14.8257C10.033 14.8257 11.6923 14.1384 12.9157 12.915C14.1391 11.6916 14.8264 10.0323 14.8264 8.30209C14.8264 6.57192 14.1391 4.91261 12.9157 3.6892C11.6923 2.46578 10.033 1.77847 8.30279 1.77847ZM1.91669e-08 8.30209C0.000112013 6.97444 0.318605 5.66617 0.928761 4.48703C1.53892 3.30789 2.42295 2.29227 3.50669 1.52535C4.59043 0.758432 5.84229 0.262587 7.15724 0.079408C8.4722 -0.103771 9.81191 0.0310589 11.064 0.472587C12.3161 0.914114 13.444 1.64946 14.3532 2.61695C15.2624 3.58444 15.9263 4.75585 16.2893 6.03293C16.6522 7.31 16.7037 8.6555 16.4392 9.95655C16.1748 11.2576 15.6022 12.4763 14.7695 13.5103L18.7169 17.4589C18.8043 17.5403 18.8744 17.6385 18.923 17.7477C18.9716 17.8568 18.9978 17.9746 18.9999 18.094C19.002 18.2135 18.98 18.3321 18.9353 18.4429C18.8905 18.5537 18.8239 18.6543 18.7394 18.7387C18.655 18.8232 18.5544 18.8898 18.4436 18.9346C18.3328 18.9793 18.2142 19.0013 18.0947 18.9992C17.9753 18.9971 17.8575 18.9709 17.7484 18.9223C17.6392 18.8737 17.541 18.8036 17.4596 18.7162L13.511 14.7688C12.2912 15.7513 10.8182 16.3688 9.26237 16.5498C7.7065 16.7308 6.13117 16.4681 4.7183 15.7918C3.30543 15.1156 2.11267 14.0535 1.27777 12.7282C0.44287 11.4029 -0.000106392 9.86845 1.91669e-08 8.30209Z" fill="#654D47"/>
</svg>
